# xmcd
#
# Track frame offsets:
#	150
#	20101
#	39811
#	57146
#	72983
#	92156
#	108821
#	125033
#	143033
#	162984
#	182694
#	200029
#	215866
#	235039
#	251704
#	267916
#	297316
#
# Disc length: 3972 seconds
#
# Revision: 1
# Processed by: cddbd v1.5.1PL2 Copyright (c) Steve Scherf et al.
# Submitted via: audiograbber 1.83.01
#
DISCID=030f8211
DTITLE=Sound Choice - SC3463
DYEAR=1900
DGENRE=
TTITLE0=McGraw, Tim - I Got Friends That Do
TTITLE1=Keith, Toby - A Little Too Late
TTITLE2=Rascal Flatts - Me And My Gang
TTITLE3=Keith, Toby - Hell No
TTITLE4=Paisley, Brad - The World
TTITLE5=Wreckers - Leave The Pieces
TTITLE6=Bomshel - Country Music Love Song
TTITLE7=Krauss, Alison and Union Station - If I Didn't Know Any Better
TTITLE8=McGraw, Tim - I Got Friends That Do
TTITLE9=Keith, Toby - A Little Too Late
TTITLE10=Rascal Flatts - Me And My Gang
TTITLE11=Keith, Toby - Hell No
TTITLE12=Paisley, Brad - The World
TTITLE13=Wreckers - Leave The Pieces
TTITLE14=Bomshel - Country Music Love Song
TTITLE15=Krauss, Alison and Union Station - If I Didn't Know Any Better
TTITLE16=x - Data Track
EXTD=
EXTT0=
EXTT1=
EXTT2=
EXTT3=
EXTT4=
EXTT5=
EXTT6=
EXTT7=
EXTT8=
EXTT9=
EXTT10=
EXTT11=
EXTT12=
EXTT13=
EXTT14=
EXTT15=
EXTT16=
PLAYORDER=
